<svg width="512" height="512" viewBox="0 0 512 512" fill="none" xmlns="http://www.w3.org/2000/svg">
<g clip-path="url(#clip0_706_141)">
<path d="M77.0078 4H434.992C475.313 4.00018 508 36.6868 508 77.0078V434.992C508 475.313 475.313 508 434.992 508H77.0078C36.6868 508 4.00018 475.313 4 434.992V77.0078C4.00017 36.6868 36.6868 4.00017 77.0078 4Z" fill="url(#paint0_linear_706_141)" stroke="url(#paint1_linear_706_141)" stroke-width="8"/>
<mask id="mask0_706_141" style="mask-type:luminance" maskUnits="userSpaceOnUse" x="10" y="10" width="492" height="492">
<path d="M428 10H84C43.1309 10 10 43.1309 10 84V428C10 468.869 43.1309 502 84 502H428C468.869 502 502 468.869 502 428V84C502 43.1309 468.869 10 428 10Z" fill="white"/>
</mask>
<g mask="url(#mask0_706_141)">
<path d="M502 10H10V502H502V10Z" fill="url(#paint2_radial_706_141)"/>
<path d="M502 10H10V502H502V10Z" fill="url(#paint3_radial_706_141)"/>
</g>
<rect x="64" y="263" width="72" height="185" rx="8" fill="url(#paint4_linear_706_141)"/>
<rect x="168" y="64" width="72" height="384" rx="8" fill="url(#paint5_linear_706_141)"/>
<rect x="272" y="179" width="72" height="269" rx="8" fill="url(#paint6_linear_706_141)"/>
<rect x="376" y="324" width="72" height="124" rx="8" fill="url(#paint7_linear_706_141)"/>
</g>
<defs>
<linearGradient id="paint0_linear_706_141" x1="14.5691" y1="6.2439" x2="497.431" y2="505.756" gradientUnits="userSpaceOnUse">
<stop stop-color="#08111D"/>
<stop offset="0.55" stop-color="#05101A"/>
<stop offset="1" stop-color="#030814"/>
</linearGradient>
<linearGradient id="paint1_linear_706_141" x1="0" y1="0" x2="512" y2="512" gradientUnits="userSpaceOnUse">
<stop stop-color="#33485C"/>
<stop offset="1" stop-color="#1E2E3E"/>
</linearGradient>
<radialGradient id="paint2_radial_706_141" cx="0" cy="0" r="1" gradientUnits="userSpaceOnUse" gradientTransform="translate(150 135) rotate(24) scale(175 115)">
<stop stop-color="#133251" stop-opacity="0.34"/>
<stop offset="1" stop-color="#133251" stop-opacity="0"/>
</radialGradient>
<radialGradient id="paint3_radial_706_141" cx="0" cy="0" r="1" gradientUnits="userSpaceOnUse" gradientTransform="translate(392 362) rotate(-14) scale(190 125)">
<stop stop-color="#0E2943" stop-opacity="0.28"/>
<stop offset="1" stop-color="#0E2943" stop-opacity="0"/>
</radialGradient>
<linearGradient id="paint4_linear_706_141" x1="100" y1="263" x2="100" y2="448" gradientUnits="userSpaceOnUse">
<stop stop-color="#244B6B"/>
<stop offset="1" stop-color="#10263B"/>
</linearGradient>
<linearGradient id="paint5_linear_706_141" x1="204" y1="64" x2="204" y2="448" gradientUnits="userSpaceOnUse">
<stop stop-color="#41D0FF"/>
<stop offset="1" stop-color="#139CFF"/>
</linearGradient>
<linearGradient id="paint6_linear_706_141" x1="308" y1="179" x2="308" y2="448" gradientUnits="userSpaceOnUse">
<stop stop-color="#2E709D"/>
<stop offset="1" stop-color="#12314D"/>
</linearGradient>
<linearGradient id="paint7_linear_706_141" x1="412" y1="324" x2="412" y2="448" gradientUnits="userSpaceOnUse">
<stop stop-color="#244B6B"/>
<stop offset="1" stop-color="#10263B"/>
</linearGradient>
<clipPath id="clip0_706_141">
<rect width="512" height="512" fill="white"/>
</clipPath>
</defs>
</svg>
